<svg xmlns="http://www.w3.org/2000/svg" xmlns:xlink="http://www.w3.org/1999/xlink" width="500" zoomAndPan="magnify" viewBox="0 0 375 374.999991" height="500" preserveAspectRatio="xMidYMid meet" version="1.0"><defs><g/><clipPath id="2083d49744"><path d="M 61 185 L 130 185 L 130 229.113281 L 61 229.113281 Z M 61 185 " clip-rule="nonzero"/></clipPath><clipPath id="b75dc62e66"><path d="M 143 167 L 152.46875 167 L 152.46875 177 L 143 177 Z M 143 167 " clip-rule="nonzero"/></clipPath><clipPath id="1452be6ee9"><path d="M 52 145.863281 L 135 145.863281 L 135 218 L 52 218 Z M 52 145.863281 " clip-rule="nonzero"/></clipPath></defs><path fill="#182b5c" d="M 75.234375 161.46875 L 127.195312 161.46875 L 127.195312 153.894531 L 75.234375 153.894531 C 69.511719 153.894531 69.511719 161.46875 75.234375 161.46875 Z M 75.234375 161.46875 " fill-opacity="1" fill-rule="nonzero"/><path fill="#182b5c" d="M 104.417969 195.433594 L 110.058594 195.433594 L 110.058594 201.027344 L 104.417969 201.027344 Z M 104.417969 195.433594 " fill-opacity="1" fill-rule="nonzero"/><path fill="#182b5c" d="M 114.550781 186.511719 L 119.984375 186.511719 L 119.984375 192.019531 L 114.550781 192.019531 Z M 114.550781 186.511719 " fill-opacity="1" fill-rule="nonzero"/><g clip-path="url(#2083d49744)"><path fill="#182b5c" d="M 129.773438 220.910156 L 129.773438 208.890625 L 121.816406 208.890625 L 121.816406 200.886719 L 129.773438 200.886719 L 129.773438 185.25 C 116.378906 200.941406 98.183594 212.304688 83.246094 217.609375 C 83.1875 217.640625 83.101562 217.667969 83.042969 217.695312 C 82.015625 218.070312 81.011719 218.386719 80.011719 218.699219 C 79.867188 218.730469 79.753906 218.785156 79.609375 218.816406 C 78.667969 219.101562 77.75 219.332031 76.863281 219.5625 C 76.722656 219.589844 76.550781 219.648438 76.40625 219.675781 C 75.375 219.933594 74.375 220.132812 73.402344 220.335938 C 73.203125 220.363281 73 220.421875 72.800781 220.449219 C 72.398438 220.507812 72.027344 220.566406 71.65625 220.621094 C 71.339844 220.679688 71.054688 220.707031 70.742188 220.738281 C 70.425781 220.765625 70.109375 220.792969 69.824219 220.824219 C 69.480469 220.851562 69.136719 220.878906 68.792969 220.910156 C 68.539062 220.9375 68.28125 220.9375 68.023438 220.9375 C 67.648438 220.964844 67.277344 220.964844 66.933594 220.964844 C 66.707031 220.964844 66.503906 220.964844 66.277344 220.964844 C 65.90625 220.964844 65.53125 220.9375 65.160156 220.910156 C 64.988281 220.910156 64.816406 220.878906 64.644531 220.878906 C 64.246094 220.851562 63.871094 220.792969 63.5 220.738281 C 63.386719 220.707031 63.242188 220.707031 63.128906 220.679688 C 62.640625 220.59375 62.15625 220.480469 61.726562 220.335938 C 63.414062 225.871094 67.992188 229.113281 74.71875 229.113281 L 121.417969 229.113281 C 126.652344 229.113281 129.773438 226.214844 129.773438 220.910156 Z M 129.773438 220.910156 " fill-opacity="1" fill-rule="nonzero"/></g><path fill="#182b5c" d="M 134.09375 179.3125 L 144.308594 179.3125 L 144.308594 189.554688 L 134.09375 189.554688 Z M 134.09375 179.3125 " fill-opacity="1" fill-rule="nonzero"/><path fill="#182b5c" d="M 139.445312 193.226562 L 147 193.226562 L 147 200.800781 L 139.445312 200.800781 Z M 139.445312 193.226562 " fill-opacity="1" fill-rule="nonzero"/><g clip-path="url(#b75dc62e66)"><path fill="#182b5c" d="M 143.707031 167.753906 L 152.464844 167.753906 L 152.464844 176.53125 L 143.707031 176.53125 Z M 143.707031 167.753906 " fill-opacity="1" fill-rule="nonzero"/></g><g clip-path="url(#1452be6ee9)"><path fill="#182b5c" d="M 66.589844 216.578125 C 67.164062 216.375 67.792969 216.148438 68.421875 215.917969 C 68.652344 215.832031 68.878906 215.746094 69.109375 215.632812 C 69.597656 215.429688 70.109375 215.199219 70.65625 214.972656 C 70.828125 214.886719 70.96875 214.828125 71.140625 214.742188 C 71.855469 214.425781 72.570312 214.082031 73.316406 213.707031 C 73.457031 213.621094 73.628906 213.566406 73.773438 213.480469 C 75.832031 212.445312 78.066406 211.242188 80.355469 209.894531 C 80.726562 209.691406 81.097656 209.464844 81.472656 209.234375 C 81.699219 209.089844 81.957031 208.945312 82.1875 208.804688 C 82.902344 208.375 83.617188 207.941406 84.359375 207.484375 C 84.648438 207.3125 84.933594 207.109375 85.246094 206.9375 C 85.933594 206.507812 86.648438 206.050781 87.335938 205.589844 C 87.707031 205.359375 88.050781 205.132812 88.425781 204.875 C 88.996094 204.5 89.539062 204.128906 90.113281 203.753906 C 90.855469 203.238281 91.628906 202.75 92.371094 202.234375 C 92.402344 202.207031 92.457031 202.175781 92.488281 202.148438 C 99.269531 197.5 106.25 192.28125 112.488281 187.171875 L 112.488281 178.421875 L 118.382812 178.421875 L 118.382812 182.125 C 122.992188 178.078125 126.96875 174.265625 129.714844 171.023438 C 134.265625 165.859375 137.8125 157.597656 130.316406 153.035156 C 133.347656 155.472656 133.175781 160.550781 129.714844 162.675781 C 128.742188 163.277344 127.453125 163.707031 125.910156 163.707031 L 75.089844 163.707031 C 66.332031 163.707031 66.332031 151.628906 75.089844 151.628906 L 127.109375 151.628906 L 127.109375 145.863281 L 74.71875 145.863281 C 66.191406 145.863281 61.039062 151.113281 61.039062 159.664062 L 61.039062 211.785156 C 55.746094 212.675781 52.226562 206.335938 55.832031 200.140625 C 47.476562 209.722656 54.085938 220.707031 66.589844 216.578125 Z M 66.589844 216.578125 " fill-opacity="1" fill-rule="nonzero"/></g><g fill="#000000" fill-opacity="1"><g transform="translate(181.882419, 190.635323)"><g><path d="M 1.984375 0 L 1.984375 -20.5 L 5.734375 -20.5 L 5.734375 0 Z M 1.984375 0 "/></g></g></g><g fill="#000000" fill-opacity="1"><g transform="translate(189.613681, 190.635323)"><g><path d="M 1.984375 0 L 1.984375 -20.5 L 5.734375 -20.5 L 15.375 -6.0625 L 15.375 -20.5 L 19.125 -20.5 L 19.125 0 L 15.375 0 L 5.734375 -14.40625 L 5.734375 0 Z M 1.984375 0 "/></g></g></g><g fill="#000000" fill-opacity="1"><g transform="translate(210.728212, 190.635323)"><g><path d="M 10.953125 0.34375 C 9.015625 0.34375 7.320312 -0.09375 5.875 -0.96875 C 4.4375 -1.84375 3.316406 -3.066406 2.515625 -4.640625 C 1.710938 -6.210938 1.3125 -8.039062 1.3125 -10.125 C 1.3125 -12.238281 1.726562 -14.097656 2.5625 -15.703125 C 3.394531 -17.316406 4.578125 -18.578125 6.109375 -19.484375 C 7.640625 -20.390625 9.457031 -20.84375 11.5625 -20.84375 C 13.96875 -20.84375 15.957031 -20.265625 17.53125 -19.109375 C 19.113281 -17.960938 20.140625 -16.375 20.609375 -14.34375 L 16.421875 -14.34375 C 16.109375 -15.300781 15.539062 -16.046875 14.71875 -16.578125 C 13.90625 -17.117188 12.851562 -17.390625 11.5625 -17.390625 C 9.507812 -17.390625 7.925781 -16.738281 6.8125 -15.4375 C 5.707031 -14.144531 5.15625 -12.367188 5.15625 -10.109375 C 5.15625 -7.835938 5.707031 -6.082031 6.8125 -4.84375 C 7.914062 -3.601562 9.410156 -2.984375 11.296875 -2.984375 C 13.148438 -2.984375 14.550781 -3.484375 15.5 -4.484375 C 16.445312 -5.492188 17.019531 -6.820312 17.21875 -8.46875 L 12.03125 -8.46875 L 12.03125 -11.265625 L 21 -11.265625 L 21 0 L 17.546875 0 L 17.25 -2.6875 C 16.582031 -1.71875 15.75 -0.96875 14.75 -0.4375 C 13.757812 0.0820312 12.492188 0.34375 10.953125 0.34375 Z M 10.953125 0.34375 "/></g></g></g><g fill="#000000" fill-opacity="1"><g transform="translate(233.365574, 190.635323)"><g><path d="M 1.984375 0 L 1.984375 -20.5 L 5.734375 -20.5 L 5.734375 -2.921875 L 14.8125 -2.921875 L 14.8125 0 Z M 1.984375 0 "/></g></g></g><g fill="#000000" fill-opacity="1"><g transform="translate(249.501651, 190.635323)"><g><path d="M 1.984375 0 L 1.984375 -20.5 L 5.734375 -20.5 L 5.734375 0 Z M 1.984375 0 "/></g></g></g><g fill="#000000" fill-opacity="1"><g transform="translate(257.232913, 190.635323)"><g><path d="M 1.984375 0 L 1.984375 -20.5 L 15.21875 -20.5 L 15.21875 -17.484375 L 5.734375 -17.484375 L 5.734375 -11.734375 L 13.40625 -11.734375 L 13.40625 -8.78125 L 5.734375 -8.78125 L 5.734375 0 Z M 1.984375 0 "/></g></g></g><g fill="#000000" fill-opacity="1"><g transform="translate(273.36899, 190.635323)"><g><path d="M 7.296875 0 L 7.296875 -7.296875 L 0.40625 -20.5 L 4.65625 -20.5 L 9.1875 -11.03125 L 13.703125 -20.5 L 17.890625 -20.5 L 11.03125 -7.296875 L 11.03125 0 Z M 7.296875 0 "/></g></g></g><g fill="#182b5c" fill-opacity="1"><g transform="translate(184.945846, 209.513936)"><g><path d="M 1 0 L 1 -9.46875 L 2.328125 -9.46875 L 5.734375 -2.875 L 9.125 -9.46875 L 10.453125 -9.46875 L 10.453125 0 L 9.328125 0 L 9.328125 -7.4375 L 6.15625 -1.359375 L 5.296875 -1.359375 L 2.140625 -7.421875 L 2.140625 0 Z M 1 0 "/></g></g></g><g fill="#182b5c" fill-opacity="1"><g transform="translate(200.175475, 209.513936)"><g><path d="M 1 0 L 1 -9.46875 L 6.859375 -9.46875 L 6.859375 -8.53125 L 2.140625 -8.53125 L 2.140625 -5.234375 L 6.453125 -5.234375 L 6.453125 -4.3125 L 2.140625 -4.3125 L 2.140625 -0.9375 L 6.859375 -0.9375 L 6.859375 0 Z M 1 0 "/></g></g></g><g fill="#182b5c" fill-opacity="1"><g transform="translate(211.577948, 209.513936)"><g><path d="M 3.109375 0.15625 C 2.253906 0.15625 1.582031 -0.078125 1.09375 -0.546875 C 0.601562 -1.023438 0.359375 -1.691406 0.359375 -2.546875 L 1.515625 -2.546875 C 1.515625 -2.066406 1.628906 -1.664062 1.859375 -1.34375 C 2.097656 -1.019531 2.507812 -0.859375 3.09375 -0.859375 C 3.664062 -0.859375 4.0625 -1.015625 4.28125 -1.328125 C 4.5 -1.640625 4.609375 -2.03125 4.609375 -2.5 L 4.609375 -9.46875 L 5.75 -9.46875 L 5.75 -2.5 C 5.75 -1.664062 5.515625 -1.015625 5.046875 -0.546875 C 4.585938 -0.078125 3.941406 0.15625 3.109375 0.15625 Z M 3.109375 0.15625 "/></g></g></g><g fill="#182b5c" fill-opacity="1"><g transform="translate(222.101388, 209.513936)"><g><path d="M 5.296875 0.15625 C 4.367188 0.15625 3.554688 -0.046875 2.859375 -0.453125 C 2.160156 -0.859375 1.613281 -1.429688 1.21875 -2.171875 C 0.832031 -2.910156 0.640625 -3.765625 0.640625 -4.734375 C 0.640625 -5.703125 0.832031 -6.550781 1.21875 -7.28125 C 1.613281 -8.019531 2.160156 -8.597656 2.859375 -9.015625 C 3.554688 -9.429688 4.367188 -9.640625 5.296875 -9.640625 C 6.242188 -9.640625 7.066406 -9.429688 7.765625 -9.015625 C 8.460938 -8.597656 9.003906 -8.019531 9.390625 -7.28125 C 9.773438 -6.550781 9.96875 -5.703125 9.96875 -4.734375 C 9.96875 -3.765625 9.773438 -2.910156 9.390625 -2.171875 C 9.003906 -1.429688 8.460938 -0.859375 7.765625 -0.453125 C 7.066406 -0.046875 6.242188 0.15625 5.296875 0.15625 Z M 5.296875 -0.84375 C 5.992188 -0.84375 6.601562 -0.992188 7.125 -1.296875 C 7.65625 -1.609375 8.066406 -2.054688 8.359375 -2.640625 C 8.660156 -3.222656 8.8125 -3.921875 8.8125 -4.734375 C 8.8125 -5.546875 8.660156 -6.238281 8.359375 -6.8125 C 8.066406 -7.394531 7.65625 -7.84375 7.125 -8.15625 C 6.601562 -8.46875 5.992188 -8.625 5.296875 -8.625 C 4.609375 -8.625 4 -8.46875 3.46875 -8.15625 C 2.9375 -7.84375 2.523438 -7.394531 2.234375 -6.8125 C 1.941406 -6.238281 1.796875 -5.546875 1.796875 -4.734375 C 1.796875 -3.921875 1.941406 -3.222656 2.234375 -2.640625 C 2.523438 -2.054688 2.9375 -1.609375 3.46875 -1.296875 C 4 -0.992188 4.609375 -0.84375 5.296875 -0.84375 Z M 5.296875 -0.84375 "/></g></g></g><g fill="#182b5c" fill-opacity="1"><g transform="translate(236.479028, 209.513936)"><g><path d="M 1 0 L 1 -9.46875 L 4.0625 -9.46875 C 4.800781 -9.46875 5.40625 -9.34375 5.875 -9.09375 C 6.34375 -8.851562 6.6875 -8.519531 6.90625 -8.09375 C 7.132812 -7.675781 7.25 -7.210938 7.25 -6.703125 C 7.25 -6.109375 7.085938 -5.570312 6.765625 -5.09375 C 6.453125 -4.613281 5.957031 -4.273438 5.28125 -4.078125 L 7.34375 0 L 6.015625 0 L 4.09375 -3.90625 L 2.140625 -3.90625 L 2.140625 0 Z M 2.140625 -4.796875 L 3.984375 -4.796875 C 4.710938 -4.796875 5.242188 -4.972656 5.578125 -5.328125 C 5.910156 -5.679688 6.078125 -6.132812 6.078125 -6.6875 C 6.078125 -7.238281 5.910156 -7.679688 5.578125 -8.015625 C 5.253906 -8.347656 4.71875 -8.515625 3.96875 -8.515625 L 2.140625 -8.515625 Z M 2.140625 -4.796875 "/></g></g></g><g fill="#182b5c" fill-opacity="1"><g transform="translate(248.27368, 209.513936)"><g><path d="M 0.40625 0 L 3.890625 -9.46875 L 5.09375 -9.46875 L 8.578125 0 L 7.375 0 L 6.515625 -2.4375 L 2.46875 -2.4375 L 1.59375 0 Z M 2.8125 -3.359375 L 6.171875 -3.359375 L 4.5 -8.03125 Z M 2.8125 -3.359375 "/></g></g></g><g fill="#182b5c" fill-opacity="1"><g transform="translate(261.028504, 209.513936)"><g/></g></g><g fill="#182b5c" fill-opacity="1"><g transform="translate(268.387438, 209.513936)"><g><path d="M 3.21875 0 L 3.21875 -8.53125 L 0.390625 -8.53125 L 0.390625 -9.46875 L 7.1875 -9.46875 L 7.1875 -8.53125 L 4.359375 -8.53125 L 4.359375 0 Z M 3.21875 0 "/></g></g></g><g fill="#182b5c" fill-opacity="1"><g transform="translate(279.735816, 209.513936)"><g><path d="M 4.421875 0.15625 C 3.773438 0.15625 3.1875 0.03125 2.65625 -0.21875 C 2.132812 -0.476562 1.710938 -0.878906 1.390625 -1.421875 C 1.078125 -1.960938 0.921875 -2.648438 0.921875 -3.484375 L 0.921875 -9.46875 L 2.0625 -9.46875 L 2.0625 -3.484375 C 2.0625 -2.554688 2.28125 -1.882812 2.71875 -1.46875 C 3.15625 -1.0625 3.734375 -0.859375 4.453125 -0.859375 C 5.160156 -0.859375 5.726562 -1.0625 6.15625 -1.46875 C 6.59375 -1.882812 6.8125 -2.554688 6.8125 -3.484375 L 6.8125 -9.46875 L 7.953125 -9.46875 L 7.953125 -3.484375 C 7.953125 -2.648438 7.796875 -1.960938 7.484375 -1.421875 C 7.171875 -0.878906 6.742188 -0.476562 6.203125 -0.21875 C 5.671875 0.03125 5.078125 0.15625 4.421875 0.15625 Z M 4.421875 0.15625 "/></g></g></g><g fill="#182b5c" fill-opacity="1"><g transform="translate(204.715376, 228.263935)"><g><path d="M 1 0 L 1 -9.46875 L 2.140625 -9.46875 L 2.140625 0 Z M 1 0 "/></g></g></g><g fill="#182b5c" fill-opacity="1"><g transform="translate(211.628035, 228.263935)"><g><path d="M 1 0 L 1 -9.46875 L 2.140625 -9.46875 L 7.1875 -1.875 L 7.1875 -9.46875 L 8.328125 -9.46875 L 8.328125 0 L 7.1875 0 L 2.140625 -7.59375 L 2.140625 0 Z M 1 0 "/></g></g></g><g fill="#182b5c" fill-opacity="1"><g transform="translate(224.720937, 228.263935)"><g><path d="M 5.078125 0.15625 C 4.191406 0.15625 3.414062 -0.046875 2.75 -0.453125 C 2.082031 -0.859375 1.5625 -1.429688 1.1875 -2.171875 C 0.820312 -2.910156 0.640625 -3.757812 0.640625 -4.71875 C 0.640625 -5.6875 0.828125 -6.539062 1.203125 -7.28125 C 1.578125 -8.019531 2.109375 -8.597656 2.796875 -9.015625 C 3.484375 -9.429688 4.296875 -9.640625 5.234375 -9.640625 C 6.296875 -9.640625 7.179688 -9.378906 7.890625 -8.859375 C 8.597656 -8.347656 9.054688 -7.640625 9.265625 -6.734375 L 7.953125 -6.734375 C 7.828125 -7.304688 7.523438 -7.757812 7.046875 -8.09375 C 6.578125 -8.425781 5.972656 -8.59375 5.234375 -8.59375 C 4.535156 -8.59375 3.929688 -8.4375 3.421875 -8.125 C 2.910156 -7.8125 2.507812 -7.363281 2.21875 -6.78125 C 1.9375 -6.207031 1.796875 -5.519531 1.796875 -4.71875 C 1.796875 -3.914062 1.9375 -3.222656 2.21875 -2.640625 C 2.5 -2.066406 2.882812 -1.625 3.375 -1.3125 C 3.875 -1.007812 4.453125 -0.859375 5.109375 -0.859375 C 6.117188 -0.859375 6.878906 -1.148438 7.390625 -1.734375 C 7.910156 -2.328125 8.207031 -3.140625 8.28125 -4.171875 L 5.546875 -4.171875 L 5.546875 -5.0625 L 9.4375 -5.0625 L 9.4375 0 L 8.40625 0 L 8.3125 -1.5625 C 7.96875 -1.007812 7.546875 -0.582031 7.046875 -0.28125 C 6.554688 0.0078125 5.898438 0.15625 5.078125 0.15625 Z M 5.078125 0.15625 "/></g></g></g><g fill="#182b5c" fill-opacity="1"><g transform="translate(238.73344, 228.263935)"><g><path d="M 1 0 L 1 -9.46875 L 2.140625 -9.46875 L 2.140625 -0.90625 L 6.546875 -0.90625 L 6.546875 0 Z M 1 0 "/></g></g></g><g fill="#182b5c" fill-opacity="1"><g transform="translate(249.608491, 228.263935)"><g><path d="M 1 0 L 1 -9.46875 L 6.859375 -9.46875 L 6.859375 -8.53125 L 2.140625 -8.53125 L 2.140625 -5.234375 L 6.453125 -5.234375 L 6.453125 -4.3125 L 2.140625 -4.3125 L 2.140625 -0.9375 L 6.859375 -0.9375 L 6.859375 0 Z M 1 0 "/></g></g></g><g fill="#182b5c" fill-opacity="1"><g transform="translate(261.010965, 228.263935)"><g><path d="M 4.015625 0.15625 C 3.328125 0.15625 2.722656 0.03125 2.203125 -0.21875 C 1.691406 -0.46875 1.296875 -0.816406 1.015625 -1.265625 C 0.734375 -1.722656 0.59375 -2.25 0.59375 -2.84375 L 1.78125 -2.84375 C 1.78125 -2.46875 1.863281 -2.125 2.03125 -1.8125 C 2.207031 -1.507812 2.457031 -1.265625 2.78125 -1.078125 C 3.113281 -0.890625 3.523438 -0.796875 4.015625 -0.796875 C 4.660156 -0.796875 5.15625 -0.945312 5.5 -1.25 C 5.851562 -1.5625 6.03125 -1.945312 6.03125 -2.40625 C 6.03125 -2.789062 5.945312 -3.097656 5.78125 -3.328125 C 5.625 -3.554688 5.40625 -3.738281 5.125 -3.875 C 4.851562 -4.019531 4.539062 -4.144531 4.1875 -4.25 C 3.832031 -4.363281 3.460938 -4.488281 3.078125 -4.625 C 2.335938 -4.875 1.789062 -5.1875 1.4375 -5.5625 C 1.09375 -5.9375 0.921875 -6.425781 0.921875 -7.03125 C 0.910156 -7.539062 1.023438 -7.988281 1.265625 -8.375 C 1.515625 -8.769531 1.863281 -9.078125 2.3125 -9.296875 C 2.757812 -9.523438 3.285156 -9.640625 3.890625 -9.640625 C 4.492188 -9.640625 5.019531 -9.523438 5.46875 -9.296875 C 5.914062 -9.066406 6.265625 -8.753906 6.515625 -8.359375 C 6.765625 -7.960938 6.894531 -7.515625 6.90625 -7.015625 L 5.703125 -7.015625 C 5.703125 -7.273438 5.632812 -7.53125 5.5 -7.78125 C 5.363281 -8.039062 5.160156 -8.25 4.890625 -8.40625 C 4.617188 -8.570312 4.273438 -8.65625 3.859375 -8.65625 C 3.335938 -8.664062 2.910156 -8.535156 2.578125 -8.265625 C 2.253906 -7.992188 2.09375 -7.617188 2.09375 -7.140625 C 2.09375 -6.734375 2.207031 -6.421875 2.4375 -6.203125 C 2.664062 -5.992188 2.988281 -5.816406 3.40625 -5.671875 C 3.820312 -5.535156 4.300781 -5.378906 4.84375 -5.203125 C 5.289062 -5.035156 5.695312 -4.84375 6.0625 -4.625 C 6.425781 -4.40625 6.707031 -4.125 6.90625 -3.78125 C 7.113281 -3.445312 7.21875 -3.007812 7.21875 -2.46875 C 7.21875 -2.019531 7.097656 -1.59375 6.859375 -1.1875 C 6.628906 -0.789062 6.273438 -0.46875 5.796875 -0.21875 C 5.328125 0.03125 4.734375 0.15625 4.015625 0.15625 Z M 4.015625 0.15625 "/></g></g></g></svg>